<svg width="4067" height="4213" viewBox="0 0 4067 4213" fill="none" xmlns="http://www.w3.org/2000/svg">
<path d="M66.787 9.12118C9.03697 34.6212 0.0370144 68.3712 0.0370144 268.621C-0.712986 442.621 9.78702 534.121 45.037 680.371C117.787 977.371 264.037 1229.37 495.037 1453.62C632.287 1586.37 753.037 1677.12 948.037 1791.12C999.787 1821.12 1042.54 1846.62 1044.04 1847.37C1044.79 1848.12 1031.29 1887.12 1012.54 1934.37C948.787 2100.12 909.787 2241.12 880.537 2411.37C867.787 2484.12 866.287 2506.62 873.787 2519.37C878.287 2528.37 910.537 2566.62 944.287 2604.12L1005.79 2673.12L1014.79 2769.12C1035.04 2981.37 1098.79 3138.87 1236.04 3309.87C1347.04 3449.37 1495.54 3551.37 1683.79 3617.37C1808.29 3660.87 1887.79 3673.62 2041.54 3673.62H2174.29L2196.04 3713.37C2244.04 3799.62 2358.04 3920.37 2448.04 3979.62C2540.29 4040.37 2641.54 4083.12 2746.54 4104.87C2811.04 4118.37 2952.79 4119.87 3012.04 4107.87C3054.04 4099.62 3054.04 4099.62 3090.04 4126.62C3169.54 4187.37 3264.04 4218.12 3351.04 4211.37C3516.04 4197.87 3642.79 4085.37 3686.29 3913.62C3721.54 3775.62 3684.79 3595.62 3594.79 3456.12C3579.04 3431.37 3565.54 3408.12 3565.54 3405.12C3565.54 3402.12 3603.79 3387.12 3650.29 3371.37C3826.54 3313.62 3939.79 3219.12 4011.79 3071.37C4057.54 2976.12 4071.04 2903.37 4065.79 2781.87C4061.29 2668.62 4043.29 2596.62 3997.54 2505.12C3902.29 2315.37 3740.29 2181.87 3514.54 2106.12C3446.29 2083.62 3294.04 2053.62 3245.29 2053.62C3221.29 2053.62 3218.29 2050.62 3207.04 2021.37C3186.79 1968.12 3123.79 1850.37 3080.29 1783.62C3016.54 1686.87 2849.29 1524.12 2740.54 1452.12C2643.04 1387.62 2550.79 1339.62 2451.79 1302.87C2415.04 1289.37 2382.79 1276.62 2380.54 1275.12C2378.29 1273.62 2386.54 1263.87 2399.29 1253.37C2432.29 1224.87 2463.04 1183.62 2463.04 1167.87C2463.04 1159.62 2455.54 1146.12 2447.29 1137.87C2432.29 1122.87 2425.54 1122.12 2373.79 1125.87C2325.79 1129.62 2268.04 1142.37 2187.79 1165.62C2178.04 1167.87 2170.54 1167.12 2170.54 1162.62C2170.54 1149.87 2228.29 1069.62 2279.29 1011.12C2337.04 945.121 2345.29 924.871 2320.54 904.621C2284.54 875.371 2163.79 897.121 2043.79 954.871C1960.54 995.371 1915.54 1026.12 1845.04 1093.62L1793.29 1142.37L1799.29 1071.12C1807.54 968.371 1806.79 952.621 1791.79 936.121C1764.04 906.121 1739.29 915.871 1672.54 982.621C1599.79 1056.12 1546.54 1137.87 1517.29 1222.62C1497.04 1282.62 1494.79 1284.87 1441.54 1324.62C1411.54 1347.12 1367.29 1383.87 1344.04 1407.12C1314.79 1435.62 1299.79 1445.37 1297.54 1437.87C1296.04 1431.87 1288.54 1403.37 1281.04 1374.87C1221.04 1135.62 1071.79 858.871 876.787 624.121C686.287 393.871 348.787 111.121 156.787 20.3712C106.537 -3.62882 98.287 -5.12882 66.787 9.12118ZM294.037 355.621C379.537 423.121 558.787 597.871 639.787 692.371C838.537 923.371 975.037 1174.62 1038.04 1423.62C1056.79 1497.87 1083.04 1629.12 1083.04 1649.37C1083.04 1664.37 915.787 1560.12 801.037 1475.37C483.037 1238.37 278.287 930.871 213.787 595.621C196.537 507.871 183.037 384.871 183.037 319.621V274.621L205.537 288.871C218.287 297.121 258.037 326.371 294.037 355.621ZM2905.54 1734.87C2962.54 1764.12 3023.29 1828.62 3057.04 1896.12C3086.29 1954.62 3110.29 2031.12 3101.29 2040.12C3096.04 2046.12 2914.54 2049.87 2908.54 2043.87C2906.29 2041.62 2907.04 2028.12 2910.04 2013.12C2914.54 1986.87 2916.04 1986.12 2940.04 1990.62C2976.04 1997.37 2999.29 1989.87 3009.04 1967.37C3033.04 1915.62 2949.79 1851.87 2870.29 1860.87C2804.29 1868.37 2778.04 1919.37 2793.79 2009.37C2799.04 2037.87 2800.54 2063.37 2798.29 2065.62C2796.04 2068.62 2778.04 2073.12 2757.79 2076.87C2724.79 2083.62 2721.79 2082.87 2706.04 2063.37C2662.54 2009.37 2637.04 1874.37 2658.04 1810.62C2689.54 1715.37 2800.54 1681.62 2905.54 1734.87ZM1819.54 1824.12C1930.54 1844.37 2031.04 1908.12 2098.54 2004.12C2145.79 2069.37 2163.79 2120.37 2168.29 2196.87C2174.29 2291.37 2171.29 2294.37 2086.54 2292.12L2018.29 2289.87L2002.54 2243.37C1971.04 2151.12 1914.79 2094.87 1823.29 2067.12C1664.29 2019.12 1509.04 2117.37 1486.54 2280.87C1482.79 2310.87 1478.29 2335.62 1476.79 2337.12C1473.79 2340.12 1382.29 2355.87 1361.29 2356.62C1350.04 2357.37 1338.04 2349.87 1327.54 2336.37C1304.29 2304.87 1305.04 2182.62 1329.04 2112.12C1371.79 1989.87 1466.29 1890.87 1583.29 1846.62C1667.29 1815.12 1731.79 1809.12 1819.54 1824.12ZM3269.29 2217.87C3421.54 2240.37 3548.29 2286.12 3648.79 2354.37C3709.54 2395.62 3786.79 2474.37 3819.79 2529.12C3856.54 2590.62 3888.79 2690.37 3895.54 2765.37C3916.54 2994.12 3810.79 3150.12 3602.29 3201.12C3415.54 3246.12 2959.54 3234.12 2739.04 3178.62C2620.54 3147.87 2506.54 3092.37 2433.04 3028.62L2400.04 2999.37L2416.54 2970.12C2436.04 2934.87 2436.79 2922.87 2421.79 2890.62C2407.54 2861.37 2361.79 2833.62 2327.29 2833.62C2292.79 2834.37 2241.79 2858.37 2226.79 2880.87C2183.29 2947.62 2209.54 3025.62 2275.54 3024.12L2304.79 3023.37L2325.04 3084.12C2388.79 3276.87 2488.54 3435.12 2616.04 3544.62C2673.79 3594.12 2769.79 3648.12 2851.54 3676.62L2924.29 3701.37L2933.29 3779.37C2937.79 3822.12 2946.79 3877.62 2953.54 3902.37C2962.54 3936.87 2962.54 3948.12 2955.79 3952.62C2932.54 3966.87 2789.29 3952.62 2714.29 3927.87C2565.79 3878.37 2414.29 3765.87 2352.79 3658.62C2324.29 3609.12 2314.54 3600.12 2265.04 3573.87C2199.04 3539.37 2101.54 3438.12 2052.04 3354.87C1952.29 3186.12 1926.79 2985.87 1983.04 2816.37C2053.54 2604.12 2238.04 2421.87 2493.04 2312.37C2606.29 2263.62 2773.54 2224.62 2935.54 2208.87C3020.29 2200.62 3180.04 2205.12 3269.29 2217.87ZM3049.54 3390.12C3126.04 3417.12 3216.04 3508.62 3257.29 3601.62C3280.54 3652.62 3298.54 3665.37 3325.54 3651.12C3368.29 3627.87 3320.29 3506.37 3228.79 3408.12L3201.79 3378.87L3254.29 3384.12C3322.54 3390.87 3346.54 3403.62 3398.29 3459.12C3483.04 3549.12 3530.29 3672.12 3531.04 3804.87C3531.79 3870.87 3529.54 3885.12 3512.29 3921.87C3452.29 4049.37 3317.29 4085.37 3202.54 4002.87C3147.79 3963.87 3118.54 3905.37 3103.54 3807.12C3097.54 3768.87 3093.04 3723.87 3093.04 3706.62C3093.04 3618.87 3048.04 3558.12 2968.54 3535.62C2850.04 3501.87 2755.54 3459.87 2755.54 3440.37C2755.54 3429.12 2846.29 3388.62 2888.29 3381.12C2934.04 3372.87 3013.54 3377.37 3049.54 3390.12Z" fill="black"/>
<path d="M3651.79 2559.87C3594.04 2590.62 3535.54 2665.62 3535.54 2707.62C3535.54 2741.37 3561.79 2773.62 3589.54 2773.62C3632.29 2772.87 3725.29 2706.87 3749.29 2660.37C3785.29 2592.12 3719.29 2523.87 3651.79 2559.87Z" fill="black"/>
<path d="M2906.29 2574.12C2883.04 2598.87 2881.54 2637.87 2902.54 2666.37C2924.29 2696.37 3063.79 2765.37 3113.29 2771.37C3150.04 2775.12 3153.79 2774.37 3176.29 2751.87C3196.54 2730.87 3199.54 2724.12 3195.79 2700.87C3189.04 2661.12 3151.54 2625.87 3078.04 2591.37C3031.54 2568.87 3002.29 2559.87 2969.29 2557.62C2928.79 2554.62 2922.79 2556.87 2906.29 2574.12Z" fill="black"/>
<path d="M3296.29 77.3716C3228.79 107.372 3013.54 321.872 2888.29 484.622C2735.29 684.122 2620.54 909.122 2575.54 1095.12C2556.79 1173.87 2556.04 1205.37 2574.04 1211.37C2625.04 1228.62 2731.54 1280.37 2781.79 1312.62C2844.04 1351.62 2880.79 1380.87 2968.54 1457.37L3019.54 1502.37L3089.29 1429.62C3237.04 1274.37 3349.54 1068.87 3404.29 854.372C3439.54 714.872 3447.79 642.122 3447.79 482.372C3447.04 248.372 3422.29 117.872 3371.29 83.3716C3342.04 63.1216 3330.79 62.3716 3296.29 77.3716ZM3265.54 591.872C3258.04 696.122 3238.54 795.122 3208.54 886.622C3180.04 972.872 3100.54 1122.87 3045.04 1197.87C2996.29 1263.12 2943.04 1320.12 2943.04 1306.62C2943.79 1284.87 2974.54 1085.37 2987.29 1021.62C3034.54 791.372 3136.54 543.872 3242.29 403.622L3261.79 377.372L3267.04 437.372C3270.04 470.372 3269.29 540.122 3265.54 591.872Z" fill="black"/>
</svg>
